<svg width="24" height="24" viewBox="0 0 24 24" fill="none" xmlns="http://www.w3.org/2000/svg">
<path d="M7.83333 8.66666C7.83333 8.44565 7.92113 8.23369 8.07741 8.07741C8.23369 7.92113 8.44565 7.83333 8.66666 7.83333H15.3333C15.5543 7.83333 15.7663 7.92113 15.9226 8.07741C16.0789 8.23369 16.1667 8.44565 16.1667 8.66666C16.1667 8.88768 16.0789 9.09964 15.9226 9.25592C15.7663 9.4122 15.5543 9.5 15.3333 9.5H8.66666C8.44565 9.5 8.23369 9.4122 8.07741 9.25592C7.92113 9.09964 7.83333 8.88768 7.83333 8.66666ZM8.66666 12.8333H15.3333C15.5543 12.8333 15.7663 12.7455 15.9226 12.5893C16.0789 12.433 16.1667 12.221 16.1667 12C16.1667 11.779 16.0789 11.567 15.9226 11.4107C15.7663 11.2545 15.5543 11.1667 15.3333 11.1667H8.66666C8.44565 11.1667 8.23369 11.2545 8.07741 11.4107C7.92113 11.567 7.83333 11.779 7.83333 12C7.83333 12.221 7.92113 12.433 8.07741 12.5893C8.23369 12.7455 8.44565 12.8333 8.66666 12.8333ZM12 14.5H8.66666C8.44565 14.5 8.23369 14.5878 8.07741 14.7441C7.92113 14.9004 7.83333 15.1123 7.83333 15.3333C7.83333 15.5543 7.92113 15.7663 8.07741 15.9226C8.23369 16.0789 8.44565 16.1667 8.66666 16.1667H12C12.221 16.1667 12.433 16.0789 12.5893 15.9226C12.7455 15.7663 12.8333 15.5543 12.8333 15.3333C12.8333 15.1123 12.7455 14.9004 12.5893 14.7441C12.433 14.5878 12.221 14.5 12 14.5ZM22 3.66667V14.9885C22.0007 15.2075 21.9579 15.4244 21.874 15.6266C21.7901 15.8289 21.6669 16.0125 21.5114 16.1667L16.1667 21.5114C16.0125 21.6669 15.8289 21.7901 15.6266 21.874C15.4244 21.9579 15.2075 22.0007 14.9885 22H3.66667C3.22464 22 2.80072 21.8244 2.48816 21.5118C2.17559 21.1993 2 20.7754 2 20.3333V3.66667C2 3.22464 2.17559 2.80072 2.48816 2.48816C2.80072 2.17559 3.22464 2 3.66667 2H20.3333C20.7754 2 21.1993 2.17559 21.5118 2.48816C21.8244 2.80072 22 3.22464 22 3.66667ZM3.66667 20.3333H14.5V15.3333C14.5 15.1123 14.5878 14.9004 14.7441 14.7441C14.9004 14.5878 15.1123 14.5 15.3333 14.5H20.3333V3.66667H3.66667V20.3333ZM16.1667 16.1667V19.1562L19.1552 16.1667H16.1667Z" fill="#475569"/>
</svg>
